<svg width="1200" height="630" viewBox="0 0 1200 630" xmlns="http://www.w3.org/2000/svg">
  <!-- Background -->
  <rect width="1200" height="630" fill="#0C0C0C"/>
  
  <!-- Road pattern background -->
  <g opacity="0.15">
    <!-- Main roads -->
    <line x1="0" y1="200" x2="1200" y2="180" stroke="#D4AF37" stroke-width="4"/>
    <line x1="0" y1="350" x2="1200" y2="370" stroke="#D4AF37" stroke-width="3"/>
    <line x1="0" y1="500" x2="1200" y2="480" stroke="#D4AF37" stroke-width="2"/>
    
    <!-- Vertical roads -->
    <line x1="300" y1="0" x2="320" y2="630" stroke="#D4AF37" stroke-width="2"/>
    <line x1="600" y1="0" x2="580" y2="630" stroke="#D4AF37" stroke-width="3"/>
    <line x1="900" y1="0" x2="920" y2="630" stroke="#D4AF37" stroke-width="2"/>
    
    <!-- City points -->
    <circle cx="300" cy="200" r="8" fill="#D4AF37"/>
    <circle cx="600" cy="350" r="10" fill="#D4AF37"/>
    <circle cx="900" cy="500" r="8" fill="#D4AF37"/>
  </g>
  
  <!-- Logo circle -->
  <circle cx="300" cy="315" r="80" fill="#D4AF37" opacity="0.1"/>
  <circle cx="300" cy="315" r="60" fill="none" stroke="#D4AF37" stroke-width="3"/>
  
  <!-- Car icon -->
  <rect x="270" y="300" width="60" height="30" rx="15" fill="#D4AF37"/>
  <circle cx="285" cy="330" r="8" fill="#0C0C0C"/>
  <circle cx="315" cy="330" r="8" fill="#0C0C0C"/>
  
  <!-- Main text -->
  <text x="500" y="280" font-family="Arial, sans-serif" font-size="72" font-weight="bold" fill="#D4AF37">ูุตูู</text>
  <text x="500" y="340" font-family="Arial, sans-serif" font-size="36" fill="#F3F0E9">ุฎุฏูุงุช ุงูููู ุงูุฎุงุต</text>
  <text x="500" y="390" font-family="Arial, sans-serif" font-size="32" fill="#D4AF37" opacity="0.8">WUSOOL - Private Transport</text>
  
  <!-- Subtitle -->
  <text x="500" y="450" font-family="Arial, sans-serif" font-size="24" fill="#F3F0E9" opacity="0.7">ุงุญุฌุฒ ุณุงุฆููุง ุฎุงุตูุง ูู ุฃุจูุง ูุงูููุงุทู ุงูุณูุงุญูุฉ</text>
  <text x="500" y="480" font-family="Arial, sans-serif" font-size="20" fill="#F3F0E9" opacity="0.6">Book private drivers in Abha and tourist areas</text>
  
  <!-- WhatsApp info -->
  <text x="500" y="550" font-family="Arial, sans-serif" font-size="28" fill="#D4AF37">๐ฑ 0598330936</text>
</svg>